<svg width="727" height="5238" viewBox="0 0 727 5238" fill="none" xmlns="http://www.w3.org/2000/svg">
<g filter="url(#filter0_f_160_9)">
<path d="M363.5 32C804.167 204.467 804.167 376.933 363.5 549.4C-77.1666 721.867 -77.1666 894.333 363.5 1066.8C804.167 1239.27 804.167 1411.73 363.5 1584.2C-77.1666 1756.67 -77.1666 1929.13 363.5 2101.6C804.167 2274.07 804.167 2446.53 363.5 2619C-77.1666 2791.47 -77.1666 2963.93 363.5 3136.4C804.167 3308.87 804.167 3481.33 363.5 3653.8C-77.1666 3826.27 -77.1666 3998.73 363.5 4171.2C804.167 4343.67 804.167 4516.13 363.5 4688.6C-77.1666 4861.07 -77.1666 5033.53 363.5 5206" stroke="url(#paint0_linear_160_9)" stroke-width="31"/>
</g>
<defs>
<filter id="filter0_f_160_9" x="0.5" y="0.56604" width="726" height="5236.87" filterUnits="userSpaceOnUse" color-interpolation-filters="sRGB">
<feFlood flood-opacity="0" result="BackgroundImageFix"/>
<feBlend mode="normal" in="SourceGraphic" in2="BackgroundImageFix" result="shape"/>
<feGaussianBlur stdDeviation="8.5" result="effect1_foregroundBlur_160_9"/>
</filter>
<linearGradient id="paint0_linear_160_9" x1="363.5" y1="32" x2="363.5" y2="5206" gradientUnits="userSpaceOnUse">
<stop stop-color="#EAFFFD"/>
<stop offset="1" stop-color="#10C3AF"/>
</linearGradient>
</defs>
</svg>
