<svg width="384" height="15341" viewBox="0 0 384 15341" fill="none" xmlns="http://www.w3.org/2000/svg">
<g filter="url(#filter0_f_430_23)">
<path d="M192 32C401.333 201.744 401.333 371.489 192 541.233C-17.3333 710.978 -17.3333 880.722 192 1050.47C401.333 1220.21 401.333 1389.96 192 1559.7C-17.3333 1729.44 -17.3333 1899.19 192 2068.93C401.333 2238.68 401.333 2408.42 192 2578.17C-17.3333 2747.91 -17.3333 2917.66 192 3087.4C401.333 3257.14 401.333 3426.89 192 3596.63C-17.3333 3766.38 -17.3333 3936.12 192 4105.87C401.333 4275.61 401.333 4445.36 192 4615.1C-17.3333 4784.84 -17.3333 4954.59 192 5124.33C401.333 5294.08 401.333 5463.82 192 5633.57C-17.3333 5803.31 -17.3333 5973.06 192 6142.8C401.333 6312.54 401.333 6482.29 192 6652.03C-17.3333 6821.78 -17.3333 6991.52 192 7161.27C401.333 7331.01 401.333 7500.76 192 7670.5C-17.3333 7840.24 -17.3333 8009.99 192 8179.73C401.333 8349.48 401.333 8519.22 192 8688.97C-17.3333 8858.71 -17.3333 9028.46 192 9198.2C401.333 9367.94 401.333 9537.69 192 9707.43C-17.3333 9877.18 -17.3333 10046.9 192 10216.7C401.333 10386.4 401.333 10556.2 192 10725.9C-17.3333 10895.6 -17.3333 11065.4 192 11235.1C401.333 11404.9 401.333 11574.6 192 11744.4C-17.3333 11914.1 -17.3333 12083.9 192 12253.6C401.333 12423.3 401.333 12593.1 192 12762.8C-17.3333 12932.6 -17.3333 13102.3 192 13272.1C401.333 13441.8 401.333 13611.6 192 13781.3C-17.3333 13951 -17.3333 14120.8 192 14290.5C401.333 14460.3 401.333 14630 192 14799.8C-17.3333 14969.5 -17.3333 15139.3 192 15309" stroke="#AFE7E1" stroke-width="30"/>
</g>
<defs>
<filter id="filter0_f_430_23" x="0" y="0.349121" width="384" height="15340.3" filterUnits="userSpaceOnUse" color-interpolation-filters="sRGB">
<feFlood flood-opacity="0" result="BackgroundImageFix"/>
<feBlend mode="normal" in="SourceGraphic" in2="BackgroundImageFix" result="shape"/>
<feGaussianBlur stdDeviation="10" result="effect1_foregroundBlur_430_23"/>
</filter>
</defs>
</svg>
